HIERARCHY
ROOT joint_Root
{
	OFFSET 0.0 0.0 0.0
	CHANNELS 6 Xposition Yposition Zposition Zrotation Xrotation Yrotation 
	JOINT Hips
	{
		OFFSET -17.1583 93.1646 452.98
		CHANNELS 6 Xposition Yposition Zposition Zrotation Xrotation Yrotation 
		JOINT Spine
		{
			OFFSET 15.7357 0.0 0.0
			CHANNELS 6 Xposition Yposition Zposition Zrotation Xrotation Yrotation 
			JOINT Chest
			{
				OFFSET 8.98455 -0.406207 0.0
				CHANNELS 6 Xposition Yposition Zposition Zrotation Xrotation Yrotation 
				JOINT Neck
				{
					OFFSET 16.3773 0.0 0.0
					CHANNELS 6 Xposition Yposition Zposition Zrotation Xrotation Yrotation 
					JOINT Head
					{
						OFFSET 6.45672 0.0 0.0
						CHANNELS 6 Xposition Yposition Zposition Zrotation Xrotation Yrotation 
						End Site
						{
							OFFSET 0.0 0.0 0.0
						}
					}
				}
				JOINT Shoulder_L
				{
					OFFSET 12.9942 -0.242716 4.98039
					CHANNELS 6 Xposition Yposition Zposition Zrotation Xrotation Yrotation 
					JOINT UpperArm_L
					{
						OFFSET 5.34809 0.0 0.0
						CHANNELS 6 Xposition Yposition Zposition Zrotation Xrotation Yrotation 
						JOINT LowerArm_L
						{
							OFFSET 24.3286 1.87007e-05 0.0
							CHANNELS 6 Xposition Yposition Zposition Zrotation Xrotation Yrotation 
							JOINT Hand_L
							{
								OFFSET 22.2916 0.0 0.0
								CHANNELS 6 Xposition Yposition Zposition Zrotation Xrotation Yrotation 
								End Site
								{
									OFFSET 0.0 0.0 0.0
								}
							}
						}
					}
				}
				JOINT Shoulder_R
				{
					OFFSET 12.9945 -0.242716 -4.98039
					CHANNELS 6 Xposition Yposition Zposition Zrotation Xrotation Yrotation 
					JOINT UpperArm_R
					{
						OFFSET -5.34813 0.0 0.0
						CHANNELS 6 Xposition Yposition Zposition Zrotation Xrotation Yrotation 
						JOINT LowerArm_R
						{
							OFFSET -24.3289 0.000322201 0.0
							CHANNELS 6 Xposition Yposition Zposition Zrotation Xrotation Yrotation 
							JOINT Hand_R
							{
								OFFSET -22.2915 -0.000108084 0.0
								CHANNELS 6 Xposition Yposition Zposition Zrotation Xrotation Yrotation 
								End Site
								{
									OFFSET 0.0 0.0 0.0
								}
							}
						}
					}
				}
			}
		}
		JOINT UpperLeg_L
		{
			OFFSET -2.19248 -6.46944 0.0
			CHANNELS 6 Xposition Yposition Zposition Zrotation Xrotation Yrotation 
			JOINT LowerLeg_L
			{
				OFFSET 39.0811 0.0 -1.23785e-05
				CHANNELS 6 Xposition Yposition Zposition Zrotation Xrotation Yrotation 
				JOINT Foot_L
				{
					OFFSET 40.9854 0.0 -1.26872e-05
					CHANNELS 6 Xposition Yposition Zposition Zrotation Xrotation Yrotation 
					JOINT Toes_L
					{
						OFFSET 11.7543 0.0 0.0
						CHANNELS 6 Xposition Yposition Zposition Zrotation Xrotation Yrotation 
						End Site
						{
							OFFSET 0.0 0.0 0.0
						}
					}
				}
			}
		}
		JOINT UpperLeg_R
		{
			OFFSET -2.19251 6.46944 0.0
			CHANNELS 6 Xposition Yposition Zposition Zrotation Xrotation Yrotation 
			JOINT LowerLeg_R
			{
				OFFSET -39.0811 -0.00228153 -0.0401928
				CHANNELS 6 Xposition Yposition Zposition Zrotation Xrotation Yrotation 
				JOINT Foot_R
				{
					OFFSET -40.9854 0.0 0.0
					CHANNELS 6 Xposition Yposition Zposition Zrotation Xrotation Yrotation 
					JOINT Toes_R
					{
						OFFSET -11.7543 0.0 0.0
						CHANNELS 6 Xposition Yposition Zposition Zrotation Xrotation Yrotation 
						End Site
						{
							OFFSET 0.0 0.0 0.0
						}
					}
				}
			}
		}
	}
}
MOTION
Frames:	4
Frame Time:	0.0333333
0.000000 0.000000 0.000000 0.000000 0.000000 -0.000000 -4.050990 91.803400 -0.034532 84.357100 0.356215 3.964760 15.735700 0.000005 -0.000001 74.530800 86.970000 -71.750800 8.984550 -0.406207 -0.000000 -1.874990 -1.849630 5.529210 16.377300 -0.000001 -0.000001 10.702300 3.336770 -9.726250 6.456720 -0.000001 -0.000000 5.287960 1.799430 -17.339700 12.994200 -0.242716 4.980390 -92.827600 7.541770 -69.378100 5.348090 -0.000007 -0.000001 -71.302500 -10.834900 -3.145740 24.328600 0.000019 0.000005 28.288000 -27.718800 -130.836000 22.291600 -0.000001 0.000005 58.236400 3.933670 25.160900 12.994500 -0.242716 -4.980390 88.241400 5.099710 -70.944500 -5.348130 -0.000001 -0.000004 -70.023400 24.610500 -3.254530 -24.328900 0.000322 -0.000009 1.590610 5.596740 -15.903100 -22.291500 -0.000108 -0.000004 1.752360 5.241370 1.659830 -2.192480 -6.469440 -0.000000 -171.069000 3.521010 -3.747420 39.081100 -0.000007 -0.000012 0.295464 -0.549989 28.246000 40.985400 -0.000006 -0.000013 -0.967157 10.223000 -76.272000 11.754300 -0.000000 0.000003 0.000520 0.158363 -10.154100 -2.192510 6.469440 -0.000001 -169.764000 5.893070 -176.492000 -39.081100 -0.002282 -0.040193 0.138367 -0.482781 15.627000 -40.985400 0.000008 0.000006 5.570600 -0.476740 -71.391800 -11.754300 -0.000006 -0.000006 -0.008385 0.258818 -6.061430
0.000000 0.000000 0.000000 0.000000 0.000000 -0.000000 -4.057580 91.799100 -0.015478 84.343600 0.391118 3.983330 15.735700 0.000005 -0.000001 74.771700 86.962800 -72.015800 8.984550 -0.406207 -0.000000 -1.855390 -1.826360 5.481580 16.377300 -0.000001 -0.000001 10.590800 3.311240 -9.626220 6.456720 -0.000001 -0.000000 5.249150 1.779500 -17.175400 12.994200 -0.242716 4.980390 -92.886600 7.723670 -69.434700 5.348090 -0.000007 -0.000001 -70.392200 -8.914560 -2.403450 24.328600 0.000019 0.000005 37.351700 -34.262900 -126.414000 22.291600 -0.000001 0.000005 59.785300 4.178190 21.637500 12.994500 -0.242716 -4.980390 88.233800 5.105910 -70.889600 -5.348130 -0.000001 -0.000004 -70.035000 24.545700 -3.332680 -24.328900 0.000322 -0.000009 1.576040 5.625020 -15.689600 -22.291500 -0.000108 -0.000004 1.789460 5.239430 1.710450 -2.192480 -6.469440 -0.000000 -171.048000 3.548270 -3.739650 39.081100 -0.000007 -0.000012 0.298118 -0.553952 28.288100 40.985400 -0.000006 -0.000013 -1.081380 10.277400 -76.297400 11.754300 -0.000000 0.000003 0.000387 0.160827 -10.054100 -2.192510 6.469440 -0.000001 -169.761000 5.951540 -176.449000 -39.081100 -0.002282 -0.040193 0.137672 -0.480721 15.613800 -40.985400 0.000008 0.000006 5.580340 -0.425579 -71.417500 -11.754300 -0.000006 -0.000006 -0.008148 0.256903 -6.139630
0.000000 0.000000 0.000000 0.000000 0.000000 -0.000000 -4.062720 91.786300 0.007942 84.330100 0.407379 3.997730 15.735700 0.000005 -0.000001 74.856400 86.958200 -72.118800 8.984550 -0.406207 -0.000000 -1.844600 -1.818350 5.445270 16.377300 -0.000001 -0.000001 10.552800 3.285940 -9.609870 6.456720 -0.000001 -0.000000 5.140090 1.764170 -17.083600 12.994200 -0.242716 4.980390 -92.926200 7.811910 -69.390400 5.348090 -0.000007 -0.000001 -69.526400 -7.174170 -1.831060 24.328600 0.000019 0.000005 45.546500 -39.454700 -121.942000 22.291600 -0.000001 0.000005 61.051600 4.486370 16.824800 12.994500 -0.242716 -4.980390 88.240200 5.090180 -70.899200 -5.348130 -0.000001 -0.000004 -70.086600 24.422600 -3.337710 -24.328900 0.000322 -0.000009 1.581290 5.686620 -15.577600 -22.291500 -0.000108 -0.000004 1.831710 5.240060 1.693950 -2.192480 -6.469440 -0.000000 -171.048000 3.605480 -3.726430 39.081100 -0.000007 -0.000012 0.302808 -0.561677 28.330300 40.985400 -0.000006 -0.000013 -0.917392 10.211100 -76.429500 11.754300 -0.000000 0.000003 0.000243 0.163427 -9.948500 -2.192510 6.469440 -0.000001 -169.740000 5.974850 -176.462000 -39.081100 -0.002282 -0.040193 0.139069 -0.483500 15.682000 -40.985400 0.000008 0.000006 5.573080 -0.489145 -71.434900 -11.754300 -0.000006 -0.000006 -0.008021 0.255870 -6.181850
0.000000 0.000000 0.000000 0.000000 0.000000 -0.000000 -4.060580 91.783000 0.018572 84.321400 0.462473 4.018650 15.735700 0.000005 -0.000001 74.923400 86.959600 -72.179200 8.984550 -0.406207 -0.000000 -1.845580 -1.811290 5.458430 16.377300 -0.000001 -0.000001 10.549100 3.280180 -9.693990 6.456720 -0.000001 -0.000000 5.124990 1.717620 -17.142000 12.994200 -0.242716 4.980390 -92.935700 7.835620 -69.385600 5.348090 -0.000007 -0.000001 -69.124400 -6.549740 -1.548290 24.328600 0.000019 0.000005 53.142400 -43.174700 -117.155000 22.291600 -0.000001 0.000005 62.312300 4.722160 12.757400 12.994500 -0.242716 -4.980390 88.242200 5.087010 -70.908500 -5.348130 -0.000001 -0.000004 -70.066600 24.354400 -3.260310 -24.328900 0.000322 -0.000009 1.586530 5.661060 -15.693600 -22.291500 -0.000108 -0.000004 1.837520 5.239060 1.720240 -2.192480 -6.469440 -0.000000 -171.030000 3.638930 -3.730800 39.081100 -0.000007 -0.000012 0.300019 -0.555796 28.360800 40.985400 -0.000006 -0.000013 -0.999905 10.272300 -76.390100 11.754300 -0.000000 0.000003 0.000332 0.161834 -10.013200 -2.192510 6.469440 -0.000001 -169.710000 5.869530 -176.438000 -39.081100 -0.002282 -0.040193 0.139481 -0.484810 15.686900 -40.985400 0.000008 0.000006 5.562430 -0.583029 -71.462700 -11.754300 -0.000006 -0.000006 -0.008052 0.256121 -6.171600
